<!DOCTYPE svg PUBLIC "-//W3C//DTD SVG 1.1//EN" "http://www.w3.org/Graphics/SVG/1.1/DTD/svg11.dtd">

<!-- Uploaded to: SVG Repo, www.svgrepo.com, Transformed by: SVG Repo Mixer Tools -->
<svg width="36px" height="36px" viewBox="0 0 512 512" id="icons" xmlns="http://www.w3.org/2000/svg" fill="#000000">

<g id="SVGRepo_bgCarrier" stroke-width="0"/>

<g id="SVGRepo_tracerCarrier" stroke-linecap="round" stroke-linejoin="round" stroke="#C8c8c" stroke-width="13.312000000000001">

<defs>

<style>.cls-1{fill:none;stroke:#c8c8c8;stroke-miterlimit:10;stroke-width:7px;}</style>

</defs>

<path class="cls-1" d="M437.81,182.26c-4.65,13.85-14.67,27.17-24.36,40.05-6.68,8.87-15.21,20.09-19.53,28.84v-41.73c.29-.38,.58-.77,.87-1.15,22.91-30.45,28.6-43.24,14.85-54.37-5.01-4.06-5.79-11.41-1.73-16.42,4.05-5.01,11.4-5.78,16.41-1.73,14.98,12.13,19.64,28.2,13.49,46.51Z"/>

<path class="cls-1" d="M393.92,194.23v119.18c0,38.2-30.97,69.17-69.17,69.17H186.11c-38.2,0-69.17-30.97-69.17-69.17v-119.18c0-30.55,19.79-56.46,47.25-65.63,1.72-.58,3.07-1.94,3.65-3.66l11.88-35.16c1.32-3.92,6.37-4.98,9.16-1.92l32.04,35.09,.02,.02c1.16,1.28,2.75,2.09,4.48,2.09h59.52c1.73,0,3.32-.81,4.48-2.09l.02-.02,32.04-35.09c2.79-3.06,7.84-2,9.16,1.92l11.81,34.97c.59,1.74,1.95,3.11,3.7,3.68,27.72,9.01,47.77,35.06,47.77,65.8Z"/>

<circle class="cls-1" cx="255.73" cy="257.65" r="52.04"/>

<circle class="cls-1" cx="334.51" cy="188.63" r="10.54"/>

</g>

<g id="SVGRepo_iconCarrier">

<defs>

<style>.cls-1{fill:none;stroke:#c8c8c8;stroke-miterlimit:10;stroke-width:7px;}</style>

</defs>

<path class="cls-1" d="M437.81,182.26c-4.65,13.85-14.67,27.17-24.36,40.05-6.68,8.87-15.21,20.09-19.53,28.84v-41.73c.29-.38,.58-.77,.87-1.15,22.91-30.45,28.6-43.24,14.85-54.37-5.01-4.06-5.79-11.41-1.73-16.42,4.05-5.01,11.4-5.78,16.41-1.73,14.98,12.13,19.64,28.2,13.49,46.51Z"/>

<path class="cls-1" d="M393.92,194.23v119.18c0,38.2-30.97,69.17-69.17,69.17H186.11c-38.2,0-69.17-30.97-69.17-69.17v-119.18c0-30.55,19.79-56.46,47.25-65.63,1.72-.58,3.07-1.94,3.65-3.66l11.88-35.16c1.32-3.92,6.37-4.98,9.16-1.92l32.04,35.09,.02,.02c1.16,1.28,2.75,2.09,4.48,2.09h59.52c1.73,0,3.32-.81,4.48-2.09l.02-.02,32.04-35.09c2.79-3.06,7.84-2,9.16,1.92l11.81,34.97c.59,1.74,1.95,3.11,3.7,3.68,27.72,9.01,47.77,35.06,47.77,65.8Z"/>

<circle class="cls-1" cx="255.73" cy="257.65" r="52.04"/>

<circle class="cls-1" cx="334.51" cy="188.63" r="10.54"/>

</g>

</svg>