<svg width="66" height="66" viewBox="0 0 66 66" fill="none" xmlns="http://www.w3.org/2000/svg">
<circle cx="33" cy="33" r="32.5" stroke="white"/>
<path d="M18.288 47.812C15.7547 47.812 13.5253 47.4573 11.6 46.748C9.7 46.064 8.218 45.1647 7.154 44.05C6.09 42.9353 5.558 41.7827 5.558 40.592C5.558 39.452 6.09 38.3627 7.154 37.324C8.218 36.2853 9.86467 35.4493 12.094 34.816C12.5247 34.6893 12.9933 34.5753 13.5 34.474C14.032 34.3473 14.526 34.246 14.982 34.17C15.438 34.0687 15.7673 34.018 15.97 34.018C16.198 34.018 16.312 34.1447 16.312 34.398C16.312 34.6007 16.198 34.7273 15.97 34.778C12.5753 35.2593 10.118 36.0447 8.598 37.134C7.078 38.2233 6.318 39.376 6.318 40.592C6.318 41.656 6.82467 42.682 7.838 43.67C8.85133 44.658 10.2573 45.4687 12.056 46.102C13.8547 46.7353 15.932 47.052 18.288 47.052C20.3653 47.052 22.43 46.8113 24.482 46.33C26.5593 45.874 28.4467 45.2153 30.144 44.354C31.8667 43.4927 33.2347 42.4667 34.248 41.276C35.2867 40.0853 35.806 38.7807 35.806 37.362C35.806 36.374 35.502 35.386 34.894 34.398C34.286 33.3847 33.184 32.4347 31.588 31.548C30.0173 30.636 27.7373 29.8253 24.748 29.116C22.392 28.5333 20.72 27.862 19.732 27.102C18.7693 26.342 18.288 25.544 18.288 24.708C18.288 23.872 18.6933 23.0487 19.504 22.238C20.34 21.4273 21.3787 20.7307 22.62 20.148C23.4053 19.768 24.4693 19.4387 25.812 19.16C27.1547 18.8813 28.5353 18.742 29.954 18.742C31.17 18.742 32.3353 18.8813 33.45 19.16C34.5647 19.4133 35.502 19.8693 36.262 20.528C37.022 21.1613 37.478 22.048 37.63 23.188C37.6553 23.492 37.82 23.644 38.124 23.644C38.3267 23.644 38.542 23.5553 38.77 23.378C39.0233 23.1753 39.1627 22.9727 39.188 22.77C39.2893 21.7567 39.0993 20.908 38.618 20.224C38.162 19.54 37.5033 18.9953 36.642 18.59C35.7807 18.1593 34.8053 17.8553 33.716 17.678C32.6267 17.5007 31.4867 17.412 30.296 17.412C29.1307 17.412 27.978 17.488 26.838 17.64C25.7233 17.7667 24.6973 17.944 23.76 18.172C22.848 18.4 22.126 18.6533 21.594 18.932C19.8967 19.7933 18.5033 20.794 17.414 21.934C16.35 23.074 15.818 24.2013 15.818 25.316C15.818 26.3293 16.3373 27.292 17.376 28.204C18.4147 29.0907 20.112 29.8253 22.468 30.408C25.1533 31.0413 27.2813 31.7507 28.852 32.536C30.448 33.3213 31.588 34.1573 32.272 35.044C32.9813 35.9307 33.336 36.8427 33.336 37.78C33.336 38.844 32.9687 39.794 32.234 40.63C31.4993 41.466 30.5493 42.2007 29.384 42.834C28.2187 43.442 26.9647 43.9613 25.622 44.392C24.3047 44.7973 23.0507 45.1013 21.86 45.304C20.6693 45.5067 19.6813 45.608 18.896 45.608C16.616 45.608 14.7287 45.3673 13.234 44.886C11.7647 44.3793 10.6627 43.746 9.928 42.986C9.21867 42.2007 8.864 41.4027 8.864 40.592C8.864 39.832 9.15533 39.11 9.738 38.426C10.346 37.742 11.22 37.1973 12.36 36.792C13.5253 36.3613 14.944 36.146 16.616 36.146C16.8693 36.146 16.996 36.2727 16.996 36.526C16.996 36.7793 16.8693 36.906 16.616 36.906C14.336 36.906 12.6007 37.286 11.41 38.046C10.2447 38.7807 9.662 39.6293 9.662 40.592C9.662 41.276 9.99133 41.9473 10.65 42.606C11.3087 43.2647 12.322 43.8093 13.69 44.24C15.058 44.6453 16.7933 44.848 18.896 44.848C19.7067 44.848 20.6947 44.7467 21.86 44.544C23.0253 44.3413 24.2287 44.05 25.47 43.67C26.7113 43.2647 27.864 42.7707 28.928 42.188C30.0173 41.6053 30.8913 40.9467 31.55 40.212C32.234 39.4773 32.576 38.6667 32.576 37.78C32.576 37.0453 32.272 36.298 31.664 35.538C31.0813 34.778 30.0427 34.018 28.548 33.258C27.0787 32.498 24.9887 31.8013 22.278 31.168C19.6687 30.5347 17.8067 29.7113 16.692 28.698C15.6027 27.6847 15.058 26.608 15.058 25.468C15.058 24.5813 15.324 23.6947 15.856 22.808C16.4133 21.9213 17.1607 21.0853 18.098 20.3C19.0607 19.5147 20.1247 18.8307 21.29 18.248C21.8727 17.9693 22.6327 17.716 23.57 17.488C24.5073 17.2347 25.546 17.032 26.686 16.88C27.8513 16.728 29.0293 16.652 30.22 16.652C31.4867 16.652 32.7153 16.7533 33.906 16.956C35.122 17.1587 36.1987 17.5007 37.136 17.982C38.0987 18.4633 38.8333 19.0967 39.34 19.882C39.8467 20.6673 40.0493 21.6553 39.948 22.846C39.9227 23.2767 39.7073 23.644 39.302 23.948C38.922 24.252 38.5167 24.404 38.086 24.404C37.8073 24.404 37.5413 24.3153 37.288 24.138C37.06 23.9607 36.9207 23.6693 36.87 23.264C36.7433 22.3267 36.3253 21.592 35.616 21.06C34.932 20.5027 34.0707 20.0973 33.032 19.844C32.0187 19.5907 30.942 19.464 29.802 19.464C28.5353 19.464 27.2813 19.5907 26.04 19.844C24.7987 20.0973 23.76 20.4267 22.924 20.832C21.8093 21.3893 20.8847 21.9973 20.15 22.656C19.4153 23.3147 19.048 23.986 19.048 24.67C19.048 25.3287 19.4913 25.9873 20.378 26.646C21.29 27.2793 22.7973 27.8493 24.9 28.356C27.9147 29.0653 30.258 29.9013 31.93 30.864C33.6273 31.8267 34.818 32.8527 35.502 33.942C36.2113 35.0313 36.566 36.1713 36.566 37.362C36.566 38.654 36.1987 39.8447 35.464 40.934C34.7547 42.0233 33.7667 42.9987 32.5 43.86C31.2587 44.696 29.8527 45.4053 28.282 45.988C26.7113 46.596 25.0647 47.052 23.342 47.356C21.6193 47.66 19.9347 47.812 18.288 47.812ZM38.3262 38.084C38.1995 38.084 38.0982 38.008 38.0222 37.856C37.9208 37.704 37.9208 37.5647 38.0222 37.438C38.6555 36.7287 39.4028 35.842 40.2642 34.778C41.1508 33.6887 42.1135 32.536 43.1522 31.32C44.2162 30.0787 45.3182 28.8627 46.4582 27.672C47.5982 26.456 48.7508 25.354 49.9162 24.366C51.0815 23.378 52.2215 22.5927 53.3362 22.01C54.4762 21.402 55.5528 21.098 56.5662 21.098C56.8702 21.098 57.2375 21.1613 57.6682 21.288C58.1242 21.4147 58.5295 21.63 58.8842 21.934C59.2388 22.2127 59.4162 22.6053 59.4162 23.112C59.4162 23.568 59.2895 23.8973 59.0362 24.1C58.7828 24.2773 58.4788 24.3913 58.1242 24.442C57.7695 24.4927 57.4275 24.518 57.0982 24.518C56.3382 24.518 55.5528 24.7207 54.7422 25.126C53.9315 25.506 53.1462 26 52.3862 26.608C51.6262 27.216 50.9168 27.8747 50.2582 28.584C49.5995 29.268 49.0422 29.914 48.5862 30.522C48.5102 30.6233 48.4088 30.674 48.2822 30.674C48.1555 30.674 48.0415 30.6107 47.9402 30.484C47.8642 30.3573 47.8768 30.218 47.9782 30.066C48.4342 29.458 48.9915 28.7993 49.6502 28.09C50.3342 27.3553 51.0815 26.6587 51.8922 26C52.7282 25.3413 53.5895 24.8093 54.4762 24.404C55.3628 23.9733 56.2368 23.758 57.0982 23.758C57.3262 23.758 57.6428 23.7453 58.0482 23.72C58.4535 23.6693 58.6562 23.4667 58.6562 23.112C58.6562 22.7573 58.4155 22.466 57.9342 22.238C57.4782 21.9847 57.0222 21.858 56.5662 21.858C55.6288 21.858 54.6155 22.162 53.5262 22.77C52.4622 23.3527 51.3602 24.138 50.2202 25.126C49.0802 26.114 47.9402 27.2033 46.8002 28.394C45.6855 29.5847 44.6088 30.788 43.5702 32.004C42.5568 33.1947 41.6195 34.3093 40.7582 35.348C39.9222 36.3867 39.2128 37.248 38.6302 37.932C38.5542 38.0333 38.4528 38.084 38.3262 38.084ZM49.6502 45.152C49.1435 45.152 48.6115 45.0887 48.0542 44.962C47.5222 44.81 47.0662 44.544 46.6862 44.164C46.3315 43.7587 46.1542 43.1887 46.1542 42.454C46.1542 42.3273 46.1668 42.0487 46.1922 41.618C46.2428 41.1873 46.2935 40.7187 46.3442 40.212C46.3948 39.68 46.4328 39.1987 46.4582 38.768C46.5088 38.3373 46.5342 38.0713 46.5342 37.97C46.5595 37.666 46.7748 37.5013 47.1802 37.476C47.5855 37.4253 48.2188 37.2733 49.0802 37.02C49.4602 36.8933 49.9668 36.716 50.6002 36.488C51.2588 36.26 51.8922 35.9307 52.5002 35.5C53.1082 35.0693 53.5515 34.512 53.8302 33.828C53.9062 33.6253 53.9442 33.4227 53.9442 33.22C53.9442 32.7893 53.7288 32.4093 53.2982 32.08C52.8675 31.7507 52.1582 31.586 51.1702 31.586C50.2075 31.586 49.2448 31.852 48.2822 32.384C47.3195 32.8907 46.4202 33.524 45.5842 34.284C44.7735 35.044 44.0642 35.804 43.4562 36.564C43.3802 36.6653 43.2788 36.716 43.1522 36.716C43.0255 36.716 42.9115 36.6527 42.8102 36.526C42.7342 36.374 42.7595 36.2347 42.8862 36.108C43.4942 35.3733 44.2288 34.6007 45.0902 33.79C45.9768 32.954 46.9395 32.2573 47.9782 31.7C49.0168 31.1173 50.0808 30.826 51.1702 30.826C52.2342 30.826 53.0828 31.054 53.7162 31.51C54.3748 31.9407 54.7042 32.498 54.7042 33.182C54.7042 33.9167 54.3115 34.6767 53.5262 35.462C52.7662 36.2473 51.6008 36.906 50.0302 37.438C49.6248 37.5647 49.1308 37.6913 48.5482 37.818C47.9655 37.9447 47.5475 38.0333 47.2942 38.084C47.2688 38.4387 47.2182 38.9327 47.1422 39.566C47.0915 40.1993 47.0408 40.7947 46.9902 41.352C46.9395 41.9093 46.9142 42.2767 46.9142 42.454C46.9142 43.1887 47.1675 43.6953 47.6742 43.974C48.2062 44.2527 48.8648 44.392 49.6502 44.392C50.4608 44.392 51.2588 44.2273 52.0442 43.898C52.8295 43.5687 53.5388 43.1633 54.1722 42.682C54.2228 42.6313 54.2988 42.606 54.4002 42.606C54.6535 42.606 54.7802 42.7327 54.7802 42.986C54.7802 43.1127 54.7295 43.214 54.6282 43.29C53.9188 43.822 53.1462 44.2653 52.3102 44.62C51.4742 44.9747 50.5875 45.152 49.6502 45.152ZM39.5802 45.114C39.0482 45.114 38.6555 44.9367 38.4022 44.582C38.1742 44.2273 38.0602 43.8473 38.0602 43.442C38.0602 43.0367 38.1742 42.5553 38.4022 41.998C38.6302 41.4407 38.8835 40.896 39.1622 40.364C39.4662 39.8067 39.7068 39.338 39.8842 38.958C39.9602 38.806 40.0742 38.73 40.2262 38.73C40.3528 38.73 40.4542 38.7933 40.5302 38.92C40.6315 39.0213 40.6442 39.148 40.5682 39.3C40.4162 39.604 40.2008 40.022 39.9222 40.554C39.6435 41.086 39.3902 41.618 39.1622 42.15C38.9342 42.682 38.8202 43.1127 38.8202 43.442C38.8202 44.05 39.0735 44.354 39.5802 44.354C40.0868 44.354 40.5555 44.0247 40.9862 43.366C41.4422 42.7073 41.9488 41.8713 42.5062 40.858C43.0635 39.8447 43.7222 38.7933 44.4822 37.704C45.2422 36.6147 46.1668 35.6267 47.2562 34.74C48.3455 33.8533 49.6755 33.2073 51.2462 32.802H51.3602C51.6135 32.802 51.7402 32.9287 51.7402 33.182C51.7402 33.3593 51.6388 33.4733 51.4362 33.524C49.8655 33.9293 48.4975 34.6513 47.3322 35.69C46.1922 36.7033 45.1788 37.894 44.2922 39.262C43.4308 40.6047 42.6202 41.9853 41.8602 43.404C41.6828 43.7587 41.4042 44.1387 41.0242 44.544C40.6442 44.924 40.1628 45.114 39.5802 45.114ZM50.9802 42.53C50.2962 42.53 49.8528 42.3147 49.6502 41.884C49.4728 41.428 49.3842 40.8833 49.3842 40.25C49.3842 40.0473 49.3842 39.8447 49.3842 39.642C49.4095 39.414 49.4222 39.186 49.4222 38.958C49.4222 38.7047 49.5488 38.578 49.8022 38.578C50.0555 38.578 50.1822 38.7173 50.1822 38.996C50.1568 39.2493 50.1442 39.49 50.1442 39.718C50.1442 39.946 50.1442 40.1613 50.1442 40.364C50.1442 40.8453 50.1948 41.2 50.2962 41.428C50.4228 41.656 50.6508 41.77 50.9802 41.77C51.4108 41.77 51.8795 41.618 52.3862 41.314C52.9182 41.01 53.4502 40.63 53.9822 40.174C54.5142 39.6927 54.9955 39.2113 55.4262 38.73C55.8822 38.2233 56.2368 37.7927 56.4902 37.438C56.5662 37.3367 56.6548 37.286 56.7562 37.286C56.8828 37.286 56.9968 37.3493 57.0982 37.476C57.2248 37.6027 57.2248 37.742 57.0982 37.894C56.8702 38.2233 56.5155 38.654 56.0342 39.186C55.5782 39.6927 55.0588 40.1993 54.4762 40.706C53.9188 41.2127 53.3235 41.6433 52.6902 41.998C52.0822 42.3527 51.5122 42.53 50.9802 42.53Z" fill="white"/>
</svg>
